<?xml version="1.0" encoding="iso-8859-1"?>
<!-- Generator: Adobe Illustrator 19.0.0, SVG Export Plug-In . SVG Version: 6.00 Build 0)  -->
<svg version="1.1" id="Layer_1" xmlns="http://www.w3.org/2000/svg" xmlns:xlink="http://www.w3.org/1999/xlink" x="0px" y="0px"
	 viewBox="0 0 512 512" style="enable-background:new 0 0 512 512;" xml:space="preserve">
<path style="fill:#F95428;" d="M163.838,364.401H290.4V121.394H47.722c-13.903,0-25.174,11.271-25.174,25.174v217.833h23.793"/>
<path style="fill:#E03F20;" d="M86.33,121.394H47.722c-13.903,0-25.174,11.271-25.174,25.174v217.833h23.793h14.815V146.567
	C61.156,132.665,72.426,121.394,86.33,121.394z"/>
<path style="fill:#F95428;" d="M459.835,364.401h25.796V140.911c0-10.777-8.729-19.518-19.506-19.518H290.4v243.007h51.939"/>
<g>
	<circle style="fill:#666666;" cx="105.097" cy="364.398" r="58.754"/>
	<circle style="fill:#666666;" cx="401.083" cy="364.398" r="58.754"/>
</g>
<g>
	<circle style="fill:#FFFFFF;" cx="401.083" cy="364.398" r="26.235"/>
	<circle style="fill:#FFFFFF;" cx="105.097" cy="364.398" r="26.235"/>
</g>
<polyline style="fill:#E03F20;" points="316.53,364.401 320.509,364.401 320.509,121.394 290.4,121.394 290.4,364.401 
	298.41,364.401 "/>
<rect x="398.409" y="156.431" style="fill:#E6E6E6;" width="87.23" height="76.873"/>
<polygon style="fill:#F2F2F2;" points="485.635,156.433 485.635,233.304 422.303,233.304 481.337,156.433 "/>
<rect x="317.272" y="156.431" style="fill:#E6E6E6;" width="52.039" height="76.873"/>
<rect x="398.588" y="89.436" style="fill:#2BA5F7;" width="42.343" height="31.957"/>
<path d="M105.652,296.96c-34.18,0-62.457,25.679-66.601,58.755h-7.549v-209.44c0-9.253,7.528-16.78,16.78-16.78h162.439
	c4.637,0,8.393-3.758,8.393-8.393c0-4.635-3.757-8.393-8.393-8.393H48.284c-18.509,0-33.567,15.059-33.567,33.567v209.44H8.393
	c-4.637,0-8.393,3.758-8.393,8.393c0,4.635,3.757,8.393,8.393,8.393h30.658c4.147,33.072,32.423,58.747,66.6,58.747
	c37.023,0,67.144-30.121,67.144-67.145C172.796,327.081,142.675,296.96,105.652,296.96z M105.652,414.463
	c-27.761,0-50.347-22.582-50.357-50.341c0-0.004,0-0.009,0-0.013c0-0.006-0.001-0.01-0.001-0.016
	c0.007-27.762,22.594-50.346,50.357-50.346c27.768,0,50.357,22.591,50.357,50.357S133.42,414.463,105.652,414.463z"/>
<path d="M401.646,329.476c-19.095,0-34.628,15.535-34.628,34.628c0,19.093,15.535,34.628,34.628,34.628s34.628-15.535,34.628-34.628
	C436.274,345.011,420.74,329.476,401.646,329.476z M401.646,381.946c-9.838,0-17.841-8.004-17.841-17.841
	s8.003-17.841,17.841-17.841s17.841,8.004,17.841,17.841S411.485,381.946,401.646,381.946z"/>
<path d="M105.652,329.476c-19.095,0-34.628,15.535-34.628,34.628c0,19.093,15.535,34.628,34.628,34.628s34.628-15.535,34.628-34.628
	C140.28,345.011,124.747,329.476,105.652,329.476z M105.652,381.946c-9.838,0-17.841-8.004-17.841-17.841
	s8.003-17.841,17.841-17.841s17.841,8.004,17.841,17.841S115.49,381.946,105.652,381.946z"/>
<path d="M503.607,355.715h-9.021V140.619c0-15.39-12.516-27.911-27.9-27.911h-16.797V89.144c0-4.635-3.757-8.393-8.393-8.393
	h-42.343c-4.637,0-8.393,3.758-8.393,8.393v23.564H244.295c-4.637,0-8.393,3.758-8.393,8.393c0,4.635,3.757,8.393,8.393,8.393
	h38.273V288.4c0,4.635,3.757,8.393,8.393,8.393s8.393-3.758,8.393-8.393V129.495h167.332c6.128,0,11.113,4.99,11.113,11.124v7.133
	h-78.831c-4.637,0-8.393,3.758-8.393,8.393v76.869c0,4.635,3.757,8.393,8.393,8.393h78.83v114.308h-9.552
	c-4.144-33.076-32.421-58.755-66.601-58.755s-62.457,25.679-66.601,58.755h-35.689v-40.459c0-4.635-3.757-8.393-8.393-8.393
	s-8.393,3.758-8.393,8.393v40.458h-93.667c-4.637,0-8.393,3.758-8.393,8.393c0,4.635,3.757,8.393,8.393,8.393h102.061h44.083
	c4.147,33.072,32.423,58.747,66.6,58.747s62.453-25.675,66.6-58.747h35.361c4.637,0,8.393-3.758,8.393-8.393
	C512,359.473,508.243,355.715,503.607,355.715z M407.545,112.708V97.537h25.556v15.171H407.545z M407.362,224.621v-60.082h70.437
	v60.082H407.362z M401.646,414.463c-27.746,0-50.323-22.558-50.356-50.297c0-0.019,0.002-0.037,0.002-0.056
	c0-0.02-0.002-0.039-0.003-0.059c0.03-27.742,22.607-50.302,50.356-50.302c27.768,0,50.357,22.591,50.357,50.357
	S429.413,414.463,401.646,414.463z"/>
<path d="M369.88,241.408c4.637,0,8.393-3.758,8.393-8.393v-76.869c0-4.635-3.757-8.393-8.393-8.393h-52.044
	c-4.637,0-8.393,3.758-8.393,8.393v76.869c0,4.635,3.757,8.393,8.393,8.393H369.88z M326.23,164.538h35.257v60.082H326.23V164.538z"
	/>
<path d="M468.915,285.613v-19.025c0-4.635-3.757-8.393-8.393-8.393s-8.393,3.758-8.393,8.393v19.025
	c0,4.635,3.757,8.393,8.393,8.393S468.915,290.249,468.915,285.613z"/>
<path d="M160.581,166.872c-29.31,0-53.156,23.845-53.156,53.156s23.846,53.156,53.156,53.156s53.155-23.845,53.155-53.156
	S189.892,166.872,160.581,166.872z M160.581,256.396c-20.055,0-36.369-16.315-36.369-36.369s16.315-36.369,36.369-36.369
	c20.054,0,36.368,16.315,36.368,36.369S180.635,256.396,160.581,256.396z"/>
<path d="M160.581,194.366c-14.15,0-25.662,11.511-25.662,25.66c0,14.149,11.511,25.66,25.662,25.66
	c14.149,0,25.66-11.511,25.66-25.66C186.242,205.878,174.73,194.366,160.581,194.366z M160.581,228.901
	c-4.893,0-8.875-3.981-8.875-8.874c0-4.893,3.982-8.874,8.875-8.874s8.874,3.981,8.874,8.874
	C169.455,224.921,165.474,228.901,160.581,228.901z"/>
<path d="M232.582,314.121c4.637,0,8.393-3.758,8.393-8.393v-85.7c0-44.33-36.065-80.395-80.395-80.395h-81.1
	c-4.637,0-8.393,3.758-8.393,8.393s3.757,8.393,8.393,8.393H111.5c-19.027,14.716-31.313,37.747-31.313,63.608
	c0,44.33,36.065,80.395,80.395,80.395c25.86,0,48.892-12.286,63.608-31.313v36.618C224.189,310.363,227.947,314.121,232.582,314.121
	z M160.581,283.636c-35.073,0-63.608-28.534-63.608-63.608s28.534-63.608,63.608-63.608s63.608,28.534,63.608,63.608
	C224.189,255.101,195.655,283.636,160.581,283.636z"/>
<g>
</g>
<g>
</g>
<g>
</g>
<g>
</g>
<g>
</g>
<g>
</g>
<g>
</g>
<g>
</g>
<g>
</g>
<g>
</g>
<g>
</g>
<g>
</g>
<g>
</g>
<g>
</g>
<g>
</g>
</svg>
